<?xml version="1.0" standalone="no"?>
<!DOCTYPE svg PUBLIC "-//W3C//DTD SVG 20010904//EN"
 "http://www.w3.org/TR/2001/REC-SVG-20010904/DTD/svg10.dtd">
<svg version="1.0" xmlns="http://www.w3.org/2000/svg"
 width="700.000000pt" height="700.000000pt" viewBox="0 0 700.000000 700.000000"
 preserveAspectRatio="xMidYMid meet">
<metadata>
Created by potrace 1.14, written by Peter Selinger 2001-2017
</metadata>
<g transform="translate(0.000000,700.000000) scale(0.100000,-0.100000)"
fill="#000000" stroke="none">
<path d="M1224 6984 c-446 -75 -802 -436 -874 -887 -18 -110 -8 -329 20 -432
32 -118 75 -216 142 -318 53 -81 161 -194 880 -913 536 -537 818 -826 813
-834 -8 -13 -948 -1145 -971 -1169 -12 -13 -36 7 -176 145 -173 170 -225 206
-348 239 -72 19 -211 19 -284 0 -291 -76 -476 -377 -412 -668 32 -144 58 -180
290 -415 l210 -212 -17 -83 c-54 -260 13 -513 187 -703 190 -209 468 -296 753
-237 l83 17 212 -210 c234 -232 274 -260 413 -289 95 -20 167 -19 259 5 106
27 185 71 260 147 176 175 216 433 104 663 -25 52 -63 97 -192 228 -137 139
-158 164 -145 176 14 14 1128 938 1162 965 17 13 84 -51 840 -806 867 -866
885 -882 1053 -959 125 -58 241 -85 396 -91 154 -6 247 5 373 44 315 99 574
350 683 663 114 328 64 690 -136 975 -19 28 -377 392 -794 811 l-760 761 124
110 c308 276 407 423 439 649 17 126 -5 260 -68 411 l-35 82 43 51 c23 27 45
50 48 50 3 0 132 -126 286 -281 154 -154 292 -287 307 -295 94 -50 195 58 144
154 -8 15 -157 169 -330 342 l-316 315 0 95 c0 53 -7 123 -15 155 -36 142
-125 268 -246 351 -109 74 -178 95 -324 101 l-120 5 -320 318 c-176 175 -330
323 -342 329 -78 39 -173 -31 -159 -118 5 -30 48 -78 298 -328 l293 -294 -50
-44 c-55 -49 -50 -49 -150 -7 -208 87 -414 90 -600 7 -126 -55 -245 -157 -448
-383 l-110 -124 -766 765 c-797 794 -823 818 -974 887 -198 90 -423 120 -633
84z m386 -237 c106 -30 173 -60 258 -117 74 -50 441 -413 2399 -2372 1737
-1738 2324 -2331 2362 -2387 171 -251 187 -608 39 -870 -153 -272 -421 -432
-728 -433 -183 -1 -334 44 -481 142 -89 60 -4689 4660 -4749 4749 -165 247
-190 565 -65 830 114 240 333 412 595 467 82 17 294 12 370 -9z m-910 -4170
c47 -17 78 -43 214 -177 l158 -156 -123 -145 c-68 -80 -169 -195 -224 -256
l-100 -112 -168 167 c-205 204 -222 232 -222 367 0 107 22 165 88 233 101 104
233 132 377 79z m1206 -636 c17 -10 36 -33 43 -50 29 -68 27 -70 -372 -469
-321 -321 -378 -373 -408 -378 -73 -12 -137 52 -125 125 5 30 57 87 373 404
203 203 377 372 388 377 33 14 68 11 101 -9z m673 -1246 c51 -134 19 -277 -81
-371 -74 -69 -125 -89 -233 -89 -135 0 -163 17 -367 222 l-167 168 107 96 c59
53 174 154 256 224 l150 127 156 -158 c138 -140 160 -166 179 -219z"/>
</g>
</svg>
